<svg width="400" height="400" viewBox="0 0 400 400" fill="none" xmlns="http://www.w3.org/2000/svg">
<rect width="400" height="400" rx="120" fill="url(#paint0_linear_969_272)"/>
<path fill-rule="evenodd" clip-rule="evenodd" d="M146.667 266.667H153.333V273.333H166.667V280H173.333V286.667H233.333V280H240V273.333H253.333V313.333H240H233.333V320H220V326.667H213.333V340H206.667V346.667H200V340H193.333V326.667H186.667V320H173.333V313.333H166.667H153.333V306.667H146.667V266.667Z" fill="#B2DCD8"/>
<path fill-rule="evenodd" clip-rule="evenodd" d="M260 60H146.667V66.6667H140V73.3333H133.333V93.3333H140V100H146.667V106.667H140V113.333H133.333V120H126.667V160H120V220H126.667V240H133.333V246.667H140V260H146.667V266.667H153.333V273.333H166.667V280H173.333V286.667H233.333V280H240V273.333H253.333V260H260H266.667V246.667H273.333V240H280V220H286.667V160H280V120H273.333V113.333H266.667V106.667H260V100H266.667V93.3333H273.333V73.3333H266.667V66.6667H260V60Z" fill="#B2DCD8"/>
<path fill-rule="evenodd" clip-rule="evenodd" d="M93.3334 140H106.667V146.667H113.333V186.667H100V166.667H93.3334V146.667V140ZM300 146.667H293.333V186.667H306.667V166.667H313.333V146.667V140H300V146.667Z" fill="#B2DCD8"/>
<path fill-rule="evenodd" clip-rule="evenodd" d="M133.333 266.667H140V273.333H133.333V266.667ZM133.333 286.667V273.333H126.667V286.667H120V293.333H86.6667V300H80V306.667H66.6667V313.333H53.3334V320H40V326.667H26.6667V333.333H20H13.3334V400H20V393.333H380V400H386.667V333.333H380H373.333V326.667H360V320H353.333V313.333H340V306.667H326.667V300H320V293.333H273.333V280H266.667V273.333H260V280H266.667V293.333H260V300H266.667V306.667H260V313.333H253.333L253.333 306.667H246.667V313.333H226.667V320H220V326.667H213.333V333.333V340H206.667V346.667H200V340H194.167V333.333V326.667H187.5V333.333H153.333V326.667H186.667V320H173.333V313.333H153.333V306.667H140V300H133.333V293.333H140V286.667H133.333ZM133.333 286.667H126.667V293.333H133.333V286.667ZM133.333 306.667V300H126.667V306.667H133.333ZM133.333 313.333V306.667H140V313.333H133.333ZM133.333 320V313.333H126.667V320H133.333ZM140 320V313.333H146.667V320H140ZM140 326.667V320H133.333V326.667H126.667V333.333H133.333V340L133.333 346.667H193.333V340H140V333.333H146.667V326.667H153.333V320H146.667V326.667H140ZM140 326.667H133.333V333.333H140V326.667ZM266.667 340H213.333V346.667H266.667V340ZM273.333 333.333H266.667V340H273.333V346.667H380V340H273.333V333.333ZM273.333 326.667V333.333H360V326.667H273.333ZM266.667 320V326.667H273.333V320H340V313.333H273.333V306.667H320V300H273.333V293.333H266.667V300H273.333V306.667H266.667V313.333H260V320H253.333V313.333H246.667V320H253.333V326.667H220V333.333H253.333V326.667H260V320H266.667ZM266.667 320H273.333V313.333H266.667V320ZM40 326.667H120V333.333H40V326.667ZM66.6667 313.333H120V320H66.6667L66.6667 313.333ZM86.6667 300V306.667H120V300H86.6667ZM20 340H126.667V346.667H20V340ZM20 353.333V360H380V353.333H20ZM380 366.667V373.333H20V366.667H380ZM20 380V386.667H380V380H20Z" fill="#97C3E9"/>
<path fill-rule="evenodd" clip-rule="evenodd" d="M220 133.333H213.333V140H206.667V146.667H213.333V153.333H220V146.667H213.333V140H220V133.333ZM106.667 140H113.333V146.667H120V213.333H126.667V233.333H120V220H113.333V193.333H100V186.667H113.333V153.333H106.667V146.667V140ZM93.3333 140V133.333H106.667V140H93.3333ZM93.3333 166.667H86.6666V140H93.3333V166.667ZM93.3333 166.667V186.667H100V166.667H93.3333ZM133.333 240H126.667V233.333H133.333V240ZM153.333 266.667H146.667V306.667H140V260H133.333V253.333V240H140V253.333H146.667V260H153.333V266.667ZM166.667 273.333H153.333V266.667H166.667V273.333ZM173.333 280H166.667V273.333H173.333V280ZM233.333 280V286.667H173.333V280H233.333ZM240 273.333V280H233.333V273.333H240ZM266.667 253.333V260H260V266.667V306.667H253.333V273.333H240V266.667H253.333V260V253.333H266.667ZM273.333 240V253.333H266.667V240H273.333ZM280 233.333V240H273.333V233.333H280ZM286.667 213.333H280V233.333H286.667V220H293.333V193.333H306.667V186.667H313.333V166.667H320V140H313.333V133.333H300V140H293.333V146.667H286.667V213.333ZM293.333 153.333V186.667H306.667V166.667H313.333V140H300V146.667V153.333H293.333ZM146.667 200H153.333V206.667H146.667V200ZM246.667 193.333H240V200H246.667V193.333ZM200 140H193.333V133.333H186.667V140H193.333V146.667H186.667V153.333H193.333V146.667H200V140Z" fill="#51BDBD"/>
<path fill-rule="evenodd" clip-rule="evenodd" d="M166.667 220H173.333V226.667H166.667V220ZM233.333 226.667H173.333V233.333H233.333V226.667ZM233.333 226.667V220H240V226.667H233.333Z" fill="#4E4294"/>
<path fill-rule="evenodd" clip-rule="evenodd" d="M226.667 166.667H220V173.333H226.667V186.667H233.333V173.333H226.667V166.667ZM173.333 173.333H180V186.667H173.333V173.333ZM180 173.333H186.667V166.667H180V173.333ZM186.667 180H193.333V186.667H186.667V180ZM213.333 186.667V193.333H193.333V186.667H213.333ZM213.333 186.667H220V180H213.333V186.667Z" fill="#4E4294"/>
<path fill-rule="evenodd" clip-rule="evenodd" d="M146.667 120H153.333V126.667H146.667V120ZM166.667 133.333H153.333V126.667H166.667V133.333ZM173.333 140H166.667V133.333H173.333V140ZM173.333 146.667V140H180V146.667H173.333ZM166.667 153.333V146.667H173.333V153.333H166.667ZM153.333 160V153.333H166.667V160H153.333ZM153.333 160V166.667H146.667V160H153.333ZM260 160H253.333V153.333H240V146.667H233.333V140H240V133.333H253.333V126.667H260V120H253.333V126.667H240V133.333H233.333V140H226.667V146.667H233.333V153.333H240V160H253.333V166.667H260V160Z" fill="#4E4294"/>
<path fill-rule="evenodd" clip-rule="evenodd" d="M153.333 13.3333H226.667V20H260V26.6667H266.667V33.3333H273.333V40H280H293.333V140H300V146.667H293.333V153.333H286.667V160H280V153.333V120H273.333V113.333H266.667V106.667H260V100H266.667V93.3333H273.333V73.3333H266.667V66.6667H260V60H146.667V66.6667H140V73.3333H133.333V93.3333H140V100H146.667V106.667H140V113.333H133.333V120H126.667V153.333V160H120V153.333H113.333V146.667H106.667V140H113.333V46.6667H106.667V40H113.333H126.667V33.3333H133.333H140V26.6667H146.667V20H153.333V13.3333ZM126.667 33.3333H120V20H126.667V33.3333Z" fill="#4E4294"/>
<path fill-rule="evenodd" clip-rule="evenodd" d="M193.333 313.333L213.333 313.333L213.333 306.667L220 306.667L220 300L226.667 300L226.667 286.667L233.333 286.667L233.333 280L226.667 280L226.667 286.667L220 286.667L220 280L213.333 280L213.333 286.667L206.667 286.667L206.667 280L200 280L200 286.667L193.333 286.667L193.333 280L186.667 280L186.667 286.667L180 286.667L180 280L173.333 280L173.333 286.667L180 286.667L180 300L186.667 300L186.667 306.667L193.333 306.667L193.333 313.333Z" fill="#4E4294"/>
<defs>
<linearGradient id="paint0_linear_969_272" x1="387.083" y1="430.833" x2="-4.16665" y2="-29.5833" gradientUnits="userSpaceOnUse">
<stop stop-color="#660099"/>
<stop offset="1" stop-color="#25F0F0"/>
</linearGradient>
</defs>
</svg>
